<svg xmlns="http://www.w3.org/2000/svg" width="1400" height="420" viewBox="0 0 1400 420" role="img" aria-labelledby="title description">
  <title id="title">NanoInterpret</title>
  <desc id="description">A minimal diagram of a residual stream passing through a sparse feature bottleneck.</desc>

  <style>
    :root {
      color-scheme: light dark;
    }

    .background, .hollow { fill: #f4f4f0; }
    .foreground { fill: #171717; }
    .muted { fill: #8b8b86; }
    .faint { fill: #d7d7d1; }
    .faint-stroke { stroke: #d7d7d1; }
    .foreground-stroke { stroke: #171717; }

    @media (prefers-color-scheme: dark) {
      .background, .hollow { fill: #171717; }
      .foreground { fill: #f0f0ec; }
      .muted { fill: #858581; }
      .faint { fill: #383836; }
      .faint-stroke { stroke: #383836; }
      .foreground-stroke { stroke: #f0f0ec; }
    }
  </style>

  <rect width="1400" height="420" class="background"/>

  <g class="foreground" font-family="Inter, ui-sans-serif, -apple-system, BlinkMacSystemFont, 'Segoe UI', sans-serif">
    <text x="64" y="184" font-size="88" font-weight="650" letter-spacing="-5.5">nano</text>
    <text x="64" y="266" font-size="88" font-weight="350" letter-spacing="-5.5">interpret</text>
  </g>
  <text x="68" y="316" class="muted" font-family="ui-monospace, SFMono-Regular, Menlo, Consolas, monospace" font-size="11" letter-spacing="1.5">SPARSE AUTOENCODER PLAYGROUND</text>

  <g transform="translate(758 94)">
    <g class="faint">
      <rect x="0" y="0" width="92" height="2"/>
      <rect x="0" y="20" width="128" height="2"/>
      <rect x="0" y="40" width="74" height="2"/>
      <rect x="0" y="60" width="151" height="2"/>
      <rect x="0" y="80" width="109" height="2"/>
      <rect x="0" y="100" width="137" height="2"/>
      <rect x="0" y="120" width="81" height="2"/>
      <rect x="0" y="140" width="155" height="2"/>
      <rect x="0" y="160" width="116" height="2"/>
      <rect x="0" y="180" width="143" height="2"/>
      <rect x="0" y="200" width="99" height="2"/>
      <rect x="0" y="220" width="132" height="2"/>

      <rect x="424" y="0" width="72" height="2"/>
      <rect x="424" y="20" width="119" height="2"/>
      <rect x="424" y="40" width="86" height="2"/>
      <rect x="424" y="60" width="141" height="2"/>
      <rect x="424" y="80" width="101" height="2"/>
      <rect x="424" y="100" width="130" height="2"/>
      <rect x="424" y="120" width="79" height="2"/>
      <rect x="424" y="140" width="151" height="2"/>
      <rect x="424" y="160" width="110" height="2"/>
      <rect x="424" y="180" width="135" height="2"/>
      <rect x="424" y="200" width="95" height="2"/>
      <rect x="424" y="220" width="125" height="2"/>
    </g>

    <g fill="none" class="faint-stroke">
      <path d="M92 1 H234 M128 21 H234 M74 41 H234 M109 81 H234 M137 101 H234 M81 121 H234 M116 161 H234 M99 201 H234"/>
    </g>

    <g class="foreground-stroke" stroke-width="1.25">
      <path d="M151 61 H234 M155 141 H234 M143 181 H234 M132 221 H234"/>
    </g>

    <g class="hollow faint-stroke">
      <circle cx="246" cy="1" r="3.5"/>
      <circle cx="246" cy="21" r="3.5"/>
      <circle cx="246" cy="41" r="3.5"/>
      <circle cx="246" cy="81" r="3.5"/>
      <circle cx="246" cy="101" r="3.5"/>
      <circle cx="246" cy="121" r="3.5"/>
      <circle cx="246" cy="161" r="3.5"/>
      <circle cx="246" cy="201" r="3.5"/>
    </g>

    <g class="foreground">
      <circle cx="246" cy="61" r="4.5"/>
      <circle cx="246" cy="141" r="4.5"/>
      <circle cx="246" cy="181" r="4.5"/>
      <circle cx="246" cy="221" r="4.5"/>
    </g>

    <g fill="none" class="foreground-stroke" stroke-width="1.25">
      <path d="M258 61 C324 61 350 72 424 81"/>
      <path d="M258 141 C326 141 350 128 424 121"/>
      <path d="M258 181 C324 181 350 190 424 201"/>
      <path d="M258 221 C326 221 350 215 424 221"/>
    </g>
  </g>
</svg>
