<?xml version="1.0" encoding="UTF-8" standalone="no"?>
<svg
   width="1400"
   height="300"
   viewBox="0 60 1400 300"
   role="img"
   aria-labelledby="title description"
   version="1.1"
   id="svg35"
   sodipodi:docname="banner_plain.svg"
   inkscape:version="1.4.4 (dcaf3e7, 2026-05-05)"
   xmlns:inkscape="http://www.inkscape.org/namespaces/inkscape"
   xmlns:sodipodi="http://sodipodi.sourceforge.net/DTD/sodipodi-0.dtd"
   xmlns="http://www.w3.org/2000/svg"
   xmlns:svg="http://www.w3.org/2000/svg">
  <defs
     id="defs35" />
  <sodipodi:namedview
     id="namedview35"
     pagecolor="#ffffff"
     bordercolor="#000000"
     borderopacity="0.25"
     inkscape:showpageshadow="2"
     inkscape:pageopacity="0.0"
     inkscape:pagecheckerboard="0"
     inkscape:deskcolor="#d1d1d1"
     inkscape:zoom="0.64428571"
     inkscape:cx="658.86918"
     inkscape:cy="82.261641"
     inkscape:window-width="1920"
     inkscape:window-height="1027"
     inkscape:window-x="0"
     inkscape:window-y="25"
     inkscape:window-maximized="1"
     inkscape:current-layer="wordmark" />
  <title
     id="title">nanointerpret</title>
  <desc
     id="description">A minimal diagram of a residual stream passing through a sparse feature bottleneck.</desc>
  <style
     id="style1">
    :root {
      color-scheme: light dark;
    }

    .foreground { fill: #171717; }
    .muted { fill: #8b8b86; }
    .connections { fill: none; stroke: #171717; }
    .inactive-feature { fill: #ffffff; stroke: #d7d7d1; }
    .wordmark {
      font-family: ui-monospace, &quot;SFMono-Regular&quot;, Menlo, Consolas, monospace;
      font-size: 98.335px;
      font-weight: 600;
      letter-spacing: -5.463px;
    }
    .tagline {
      font-family: ui-monospace, &quot;SFMono-Regular&quot;, Menlo, Consolas, monospace;
      font-size: 24.925px;
      font-weight: 400;
      letter-spacing: 3.399px;
    }

    @media (prefers-color-scheme: dark) {
      .foreground { fill: #f0f0ec; }
      .muted { fill: #858581; }
      .connections { stroke: #f0f0ec; }
      .inactive-feature { fill: #0d1117; stroke: #383836; }
    }
  </style>
  <!-- Standard SVG text remains editable in text and vector editors. -->
  <g
     id="wordmark"
     transform="translate(0 -4.3482167) scale(0.88918323)">
    <text
       id="name"
       class="foreground wordmark"
       x="62.245"
       y="252.699">nanointerpret</text>
    <text
       id="tagline"
       class="muted tagline"
       x="67.699997"
       y="306.716">INTERPRETABILITY PLAYGROUND</text>
  </g>
  <g
     id="feature-diagram"
     transform="translate(-245.71888 -101.67578) scale(1.3979)">
    <g
       id="connections"
       class="connections"
       transform="translate(885.59 291.64) rotate(-90) scale(0.50247 1)"
       stroke-width="1.1">
      <path
         d="M 20 58 C 102 58, 166 15, 248 15"
         id="path1" />
      <path
         d="M 20 112 C 112 112, 166 15, 248 15"
         id="path2" />
      <path
         d="M 20 76 C 108 76, 170 99, 248 99"
         id="path3" />
      <path
         d="M 20 76 C 110 76, 174 155, 248 155"
         id="path4" />
      <path
         d="M 20 112 C 100 112, 166 155, 248 155"
         id="path5" />
      <path
         d="M 20 148 C 108 148, 174 155, 248 155"
         id="path6" />
      <path
         d="M 20 166 C 106 166, 174 155, 248 155"
         id="path7" />
      <path
         d="M 20 130 C 110 130, 176 211, 248 211"
         id="path8" />
      <path
         d="M 20 184 C 108 184, 174 211, 248 211"
         id="path9" />
      <path
         d="M 20 166 C 106 166, 174 225.664, 248 225.664"
         id="path10" />
    </g>
    <g
       id="input-nodes"
       class="muted"
       transform="rotate(-90 594.74 -290.85)">
      <circle
         cx="12"
         cy="58"
         r="3.5"
         id="circle10" />
      <circle
         cx="12"
         cy="76"
         r="3.5"
         id="circle11" />
      <circle
         cx="12"
         cy="94"
         r="3.5"
         id="circle12" />
      <circle
         cx="12"
         cy="112"
         r="3.5"
         id="circle13" />
      <circle
         cx="12"
         cy="130"
         r="3.5"
         id="circle14" />
      <circle
         cx="12"
         cy="148"
         r="3.5"
         id="circle15" />
      <circle
         cx="12"
         cy="166"
         r="3.5"
         id="circle16" />
      <circle
         cx="12"
         cy="184"
         r="3.5"
         id="circle17" />
    </g>
    <g
       id="inactive-features"
       class="inactive-feature"
       transform="rotate(-90 650.31 -235.28)"
       stroke-width="1.25">
      <circle
         cx="260"
         cy="1"
         r="3.25"
         id="circle18" />
      <circle
         cx="260"
         cy="29"
         r="3.25"
         id="circle19" />
      <circle
         cx="260"
         cy="43"
         r="3.25"
         id="circle20" />
      <circle
         cx="260"
         cy="57"
         r="3.25"
         id="circle21" />
      <circle
         cx="260"
         cy="71"
         r="3.25"
         id="circle22" />
      <circle
         cx="260"
         cy="85"
         r="3.25"
         id="circle23" />
      <circle
         cx="260"
         cy="113"
         r="3.25"
         id="circle24" />
      <circle
         cx="260"
         cy="127"
         r="3.25"
         id="circle25" />
      <circle
         cx="260"
         cy="141"
         r="3.25"
         id="circle26" />
      <circle
         cx="260"
         cy="169"
         r="3.25"
         id="circle27" />
      <circle
         cx="260"
         cy="183"
         r="3.25"
         id="circle28" />
      <circle
         cx="260"
         cy="197"
         r="3.25"
         id="circle29" />
      <circle
         cx="260"
         cy="239"
         r="3.25"
         id="circle30" />
    </g>
    <g
       id="active-features"
       class="foreground"
       transform="rotate(-90 650.31 -235.28)">
      <circle
         cx="260"
         cy="15"
         r="4.5"
         id="circle31" />
      <circle
         cx="260"
         cy="99"
         r="4.5"
         id="circle32" />
      <circle
         cx="260"
         cy="155"
         r="4.5"
         id="circle33" />
      <circle
         cx="260"
         cy="211"
         r="4.5"
         id="circle34" />
      <circle
         cx="260"
         cy="225.07"
         r="4.5"
         id="circle35" />
    </g>
  </g>
</svg>
